<svg viewBox="0 0 520 420" xmlns="http://www.w3.org/2000/svg"><defs><linearGradient id="hg" x1="0" y1="0" x2="1" y2="1"><stop offset="0" stop-color="#14B8A6"/><stop offset="1" stop-color="#0E9384"/></linearGradient></defs><rect width="520" height="420" fill="none"/><circle cx="300" cy="210" r="180" fill="url(#hg)" opacity="0.14"/><circle cx="300" cy="210" r="130" fill="url(#hg)" opacity="0.10"/><g transform="translate(150,120)"><rect width="250" height="180" rx="20" fill="#fff" stroke="#E7F6F4" stroke-width="2"/><rect x="20" y="22" width="52" height="52" rx="14" fill="url(#hg)"/><g transform="translate(20,22)"><g transform="translate(26.0,26.0) skewX(-12) translate(-26.0,-26.0)"><path d="M 11.96 28.080000000000002 L 16.12 37.96 L 21.84 11.96" fill="none" stroke="#FBBF24" stroke-width="5.720000000000001" stroke-linecap="round" stroke-linejoin="round"/><path d="M 21.84 11.96 L 28.6 25.48 L 35.36 11.96 L 35.36 37.96" fill="none" stroke="#fff" stroke-width="5.720000000000001" stroke-linecap="round" stroke-linejoin="round"/></g></g><rect x="86" y="28" width="120" height="12" rx="6" fill="#123B4A"/><rect x="86" y="50" width="80" height="10" rx="5" fill="#5B7480" opacity="0.5"/><path d="M92 84 l4 4 l7 -8" fill="none" stroke="#FBBF24" stroke-width="3" stroke-linecap="round" stroke-linejoin="round"/><path d="M112 84 l4 4 l7 -8" fill="none" stroke="#FBBF24" stroke-width="3" stroke-linecap="round" stroke-linejoin="round"/><path d="M132 84 l4 4 l7 -8" fill="none" stroke="#FBBF24" stroke-width="3" stroke-linecap="round" stroke-linejoin="round"/><path d="M152 84 l4 4 l7 -8" fill="none" stroke="#FBBF24" stroke-width="3" stroke-linecap="round" stroke-linejoin="round"/><path d="M172 84 l4 4 l7 -8" fill="none" stroke="#FBBF24" stroke-width="3" stroke-linecap="round" stroke-linejoin="round"/><rect x="20" y="110" width="210" height="46" rx="14" fill="url(#hg)"/><text x="125" y="139" text-anchor="middle" font-family="'Poppins','Segoe UI',system-ui,Arial,sans-serif" font-size="17" font-weight="600" fill="#fff">Book this cleaner</text></g><path d="M 110 74 Q 110 90 126 90 Q 110 90 110 106 Q 110 90 94 90 Q 110 90 110 74 Z" fill="#FBBF24" opacity="1"/><path d="M 420 138 Q 420 150 432 150 Q 420 150 420 162 Q 420 150 408 150 Q 420 150 420 138 Z" fill="#14B8A6" opacity="1"/><path d="M 400 310 Q 400 320 410 320 Q 400 320 400 330 Q 400 320 390 320 Q 400 320 400 310 Z" fill="#FBBF24" opacity="0.9"/><path d="M 120 321 Q 120 330 129 330 Q 120 330 120 339 Q 120 330 111 330 Q 120 330 120 321 Z" fill="#14B8A6" opacity="1"/><path d="M 300 52 Q 300 60 308 60 Q 300 60 300 68 Q 300 60 292 60 Q 300 60 300 52 Z" fill="#FBBF24" opacity="1"/></svg>