<svg viewBox="0 0 1200 630" xmlns="http://www.w3.org/2000/svg"><defs><linearGradient id="og1" x1="0" y1="0" x2="1" y2="1"><stop offset="0" stop-color="#14B8A6"/><stop offset="1" stop-color="#0E9384"/></linearGradient></defs><rect width="1200" height="630" fill="#123B4A"/><circle cx="1050" cy="120" r="260" fill="url(#og1)" opacity="0.18"/><circle cx="1120" cy="520" r="200" fill="url(#og1)" opacity="0.12"/><g transform="translate(120,150)"><rect width="150" height="150" rx="38" fill="url(#og1)"/><g transform="translate(15,15)"><g transform="translate(60.0,60.0) skewX(-12) translate(-60.0,-60.0)"><path d="M 27.599999999999998 64.8 L 37.199999999999996 87.6 L 50.4 27.599999999999998" fill="none" stroke="#FBBF24" stroke-width="13.2" stroke-linecap="round" stroke-linejoin="round"/><path d="M 50.4 27.599999999999998 L 66.0 58.8 L 81.6 27.599999999999998 L 81.6 87.6" fill="none" stroke="#fff" stroke-width="13.2" stroke-linecap="round" stroke-linejoin="round"/></g></g><path d="M 128 25 Q 128 34 137 34 Q 128 34 128 43 Q 128 34 119 34 Q 128 34 128 25 Z" fill="#FBBF24" opacity="1"/></g><text x="300" y="240" font-family="'Poppins','Segoe UI',system-ui,Arial,sans-serif" font-size="88" font-weight="700" letter-spacing="-1" fill="#fff">Match<tspan fill="#7FEBDD"> Maid</tspan></text><text x="304" y="300" font-family="'Poppins','Segoe UI',system-ui,Arial,sans-serif" font-size="31" fill="#CFE9E6">Find a trusted local cleaner in your neighbourhood</text><g transform="translate(304,360)"><g transform="translate(0,0)"><rect width="150" height="44" rx="22" fill="#14B8A6"/><circle cx="26" cy="22" r="12" fill="#fff"/><path d="M20 22 L24 27 L33 16" fill="none" stroke="#14B8A6" stroke-width="3.2" stroke-linecap="round" stroke-linejoin="round"/><text x="52" y="28" font-family="'Poppins','Segoe UI',system-ui,Arial,sans-serif" font-size="15" font-weight="600" fill="#fff">Verified</text></g><g transform="translate(165,0)"><rect width="205" height="44" rx="22" fill="#1c4a5e"/><path d="M26 10 l10 4 v8 c0 7 -5 11 -10 13 c-5 -2 -10 -6 -10 -13 v-8 z" fill="#fff"/><path d="M21 22 l3.5 4 l7 -8" fill="none" stroke="#123B4A" stroke-width="2.8" stroke-linecap="round" stroke-linejoin="round"/><text x="52" y="28" font-family="'Poppins','Segoe UI',system-ui,Arial,sans-serif" font-size="15" font-weight="600" fill="#fff">Criminal checked</text></g><g transform="translate(385,0)"><rect width="140" height="44" rx="22" fill="#0E9384"/><path d="M26 10 a12 12 0 0 1 12 12 h-24 a12 12 0 0 1 12-12 z" fill="#fff"/><line x1="26" y1="22" x2="26" y2="33" stroke="#fff" stroke-width="2.6" stroke-linecap="round"/><text x="52" y="28" font-family="'Poppins','Segoe UI',system-ui,Arial,sans-serif" font-size="15" font-weight="600" fill="#fff">Insured</text></g></g><path d="M 180 456 Q 180 470 194 470 Q 180 470 180 484 Q 180 470 166 470 Q 180 470 180 456 Z" fill="#FBBF24" opacity="1"/><path d="M 240 512 Q 240 520 248 520 Q 240 520 240 528 Q 240 520 232 520 Q 240 520 240 512 Z" fill="#7FEBDD" opacity="1"/></svg>