<svg viewBox="0 0 130 110" xmlns="http://www.w3.org/2000/svg"><path d="M 40 16 Q 40 30 54 30 Q 40 30 40 44 Q 40 30 26 30 Q 40 30 40 16 Z" fill="#FBBF24" opacity="1"/><path d="M 80 49 Q 80 58 89 58 Q 80 58 80 67 Q 80 58 71 58 Q 80 58 80 49 Z" fill="#14B8A6" opacity="1"/><path d="M 24 67 Q 24 74 31 74 Q 24 74 24 81 Q 24 74 17 74 Q 24 74 24 67 Z" fill="#FBBF24" opacity="0.9"/><path d="M 96 14 Q 96 20 102 20 Q 96 20 96 26 Q 96 20 90 20 Q 96 20 96 14 Z" fill="#14B8A6" opacity="1"/><path d="M 64 85 Q 64 90 69 90 Q 64 90 64 95 Q 64 90 59 90 Q 64 90 64 85 Z" fill="#FBBF24" opacity="1"/></svg>