<svg viewBox="0 0 260 220" xmlns="http://www.w3.org/2000/svg"><circle cx="130" cy="95" r="80" fill="#F4F7F8"/><line x1="70" y1="60" x2="120" y2="118" stroke="#5B7480" stroke-width="7" stroke-linecap="round"/><g transform="translate(66,60) rotate(50)"><rect x="-14" y="-3" width="28" height="9" rx="4" fill="#14B8A6"/><line x1="-10" y1="4" x2="-15" y2="22" stroke="#14B8A6" stroke-width="4" stroke-linecap="round"/><line x1="-5.0" y1="4" x2="-7.5" y2="22" stroke="#14B8A6" stroke-width="4" stroke-linecap="round"/><line x1="0" y1="4" x2="0" y2="22" stroke="#14B8A6" stroke-width="4" stroke-linecap="round"/><line x1="5.0" y1="4" x2="7.5" y2="22" stroke="#14B8A6" stroke-width="4" stroke-linecap="round"/><line x1="10" y1="4" x2="15" y2="22" stroke="#14B8A6" stroke-width="4" stroke-linecap="round"/></g><path d="M 150 30 Q 150 40 160 40 Q 150 40 150 50 Q 150 40 140 40 Q 150 40 150 30 Z" fill="#FBBF24" opacity="1"/><path d="M 180 64 Q 180 70 186 70 Q 180 70 180 76 Q 180 70 174 70 Q 180 70 180 64 Z" fill="#14B8A6" opacity="1"/><path d="M 70 43 Q 70 50 77 50 Q 70 50 70 57 Q 70 50 63 50 Q 70 50 70 43 Z" fill="#FBBF24" opacity="0.9"/><text x="130" y="200" text-anchor="middle" font-family="'Poppins','Segoe UI',system-ui,Arial,sans-serif" font-size="15" fill="#5B7480">Nothing here yet</text></svg>