<svg viewBox="0 0 910 140" xmlns="http://www.w3.org/2000/svg"><g transform="translate(16,10)"><circle cx="45" cy="45" r="42" fill="#E7F6F4"/><g transform="translate(13,13)"><circle cx="26" cy="26" r="13" fill="none" stroke="#123B4A" stroke-width="4"/><line x1="36" y1="36" x2="50" y2="50" stroke="#123B4A" stroke-width="5" stroke-linecap="round"/><path d="M 46 9 Q 46 14 51 14 Q 46 14 46 19 Q 46 14 41 14 Q 46 14 46 9 Z" fill="#FBBF24" opacity="1"/></g><text x="45" y="112" text-anchor="middle" font-family="'Poppins','Segoe UI',system-ui,Arial,sans-serif" font-size="13" fill="#123B4A">Search free</text></g><g transform="translate(166,10)"><circle cx="45" cy="45" r="42" fill="#E7F6F4"/><g transform="translate(13,13)"><circle cx="30" cy="32" r="16" fill="none" stroke="#14B8A6" stroke-width="4"/><path d="M22 32 L28 39 L40 24" fill="none" stroke="#123B4A" stroke-width="4.5" stroke-linecap="round" stroke-linejoin="round"/><path d="M 48 9 Q 48 14 53 14 Q 48 14 48 19 Q 48 14 43 14 Q 48 14 48 9 Z" fill="#FBBF24" opacity="1"/></g><text x="45" y="112" text-anchor="middle" font-family="'Poppins','Segoe UI',system-ui,Arial,sans-serif" font-size="13" fill="#123B4A">Vetted &amp; verified</text></g><g transform="translate(316,10)"><circle cx="45" cy="45" r="42" fill="#E7F6F4"/><g transform="translate(13,13)"><line x1="20" y1="34" x2="40" y2="22" stroke="#123B4A" stroke-width="3.5" stroke-linecap="round"/><circle cx="18" cy="36" r="7" fill="#123B4A"/><circle cx="42" cy="20" r="7" fill="#14B8A6"/><path d="M 50 35 Q 50 40 55 40 Q 50 40 50 45 Q 50 40 45 40 Q 50 40 50 35 Z" fill="#FBBF24" opacity="1"/></g><text x="45" y="112" text-anchor="middle" font-family="'Poppins','Segoe UI',system-ui,Arial,sans-serif" font-size="13" fill="#123B4A">Matched one-to-one</text></g><g transform="translate(466,10)"><circle cx="45" cy="45" r="42" fill="#E7F6F4"/><g transform="translate(13,13)"><path d="M14 20 h20 a4 4 0 0 1 3 1.5 l12 14 a4 4 0 0 1 -0.3 5.6 l-13 11 a4 4 0 0 1 -5.6 -0.4 l-12 -14 a4 4 0 0 1 -1-2.6 v-16 a4 4 0 0 1 4-4 z" fill="none" stroke="#14B8A6" stroke-width="3.5" stroke-linejoin="round"/><circle cx="23" cy="29" r="3.2" fill="#123B4A"/><path d="M27 40 L31 44 L40 34" fill="none" stroke="#123B4A" stroke-width="3.5" stroke-linecap="round" stroke-linejoin="round"/></g><text x="45" y="112" text-anchor="middle" font-family="'Poppins','Segoe UI',system-ui,Arial,sans-serif" font-size="13" fill="#123B4A">One flat fee</text></g><g transform="translate(616,10)"><circle cx="45" cy="45" r="42" fill="#E7F6F4"/><g transform="translate(13,13)"><path d="M32 10 a15 15 0 0 1 15 15 c0 10 -15 27 -15 27 s-15-17-15-27 a15 15 0 0 1 15-15 z" fill="none" stroke="#14B8A6" stroke-width="3.8" stroke-linejoin="round"/><circle cx="32" cy="25" r="5.5" fill="#123B4A"/><path d="M 50 9.5 Q 50 14 54.5 14 Q 50 14 50 18.5 Q 50 14 45.5 14 Q 50 14 50 9.5 Z" fill="#FBBF24" opacity="1"/></g><text x="45" y="112" text-anchor="middle" font-family="'Poppins','Segoe UI',system-ui,Arial,sans-serif" font-size="13" fill="#123B4A">Local to you</text></g><g transform="translate(766,10)"><circle cx="45" cy="45" r="42" fill="#E7F6F4"/><g transform="translate(13,13)"><path d="M44 24 a15 15 0 1 0 3 12" fill="none" stroke="#14B8A6" stroke-width="4" stroke-linecap="round"/><path d="M44 14 L46 25 L35 24 Z" fill="#14B8A6"/><path d="M28 34 L32 39 L40 29" fill="none" stroke="#123B4A" stroke-width="3.8" stroke-linecap="round" stroke-linejoin="round"/></g><text x="45" y="112" text-anchor="middle" font-family="'Poppins','Segoe UI',system-ui,Arial,sans-serif" font-size="13" fill="#123B4A">Same cleaner</text></g></svg>