<svg viewBox="0 0 120 120" xmlns="http://www.w3.org/2000/svg"><g transform="translate(12,12)"><g transform="translate(48.0,48.0) skewX(-12) translate(-48.0,-48.0)"><path d="M 22.08 51.839999999999996 L 29.759999999999998 70.08 L 40.32 22.08" fill="none" stroke="#14B8A6" stroke-width="10.559999999999999" stroke-linecap="round" stroke-linejoin="round"/><path d="M 40.32 22.08 L 52.8 47.04 L 65.28 22.08 L 65.28 70.08" fill="none" stroke="#123B4A" stroke-width="10.559999999999999" stroke-linecap="round" stroke-linejoin="round"/></g><path d="M 79.67999999999999 12.48 Q 79.67999999999999 19.2 86.39999999999999 19.2 Q 79.67999999999999 19.2 79.67999999999999 25.919999999999998 Q 79.67999999999999 19.2 72.96 19.2 Q 79.67999999999999 19.2 79.67999999999999 12.48 Z" fill="#FBBF24"/><path d="M 86.39999999999999 34.56 Q 86.39999999999999 38.4 90.24 38.4 Q 86.39999999999999 38.4 86.39999999999999 42.239999999999995 Q 86.39999999999999 38.4 82.55999999999999 38.4 Q 86.39999999999999 38.4 86.39999999999999 34.56 Z" fill="#14B8A6"/><path d="M 15.36 24.479999999999997 Q 15.36 28.799999999999997 19.68 28.799999999999997 Q 15.36 28.799999999999997 15.36 33.12 Q 15.36 28.799999999999997 11.04 28.799999999999997 Q 15.36 28.799999999999997 15.36 24.479999999999997 Z" fill="#FBBF24" opacity="0.9"/><path d="M 44.16 77.28 Q 44.16 80.64 47.519999999999996 80.64 Q 44.16 80.64 44.16 84.0 Q 44.16 80.64 40.8 80.64 Q 44.16 80.64 44.16 77.28 Z" fill="#14B8A6"/></g></svg>