<svg viewBox="0 0 452 120" xmlns="http://www.w3.org/2000/svg"><g transform="translate(8,26)"><g transform="translate(34.0,34.0) skewX(-12) translate(-34.0,-34.0)"><path d="M 15.64 36.720000000000006 L 21.080000000000002 49.64 L 28.560000000000002 15.64" fill="none" stroke="#14B8A6" stroke-width="7.48" stroke-linecap="round" stroke-linejoin="round"/><path d="M 28.560000000000002 15.64 L 37.400000000000006 33.32 L 46.24 15.64 L 46.24 49.64" fill="none" stroke="#123B4A" stroke-width="7.48" stroke-linecap="round" stroke-linejoin="round"/></g><path d="M 56.440000000000005 8.84 Q 56.440000000000005 13.600000000000001 61.2 13.600000000000001 Q 56.440000000000005 13.600000000000001 56.440000000000005 18.360000000000003 Q 56.440000000000005 13.600000000000001 51.68000000000001 13.600000000000001 Q 56.440000000000005 13.600000000000001 56.440000000000005 8.84 Z" fill="#FBBF24"/><path d="M 61.2 24.480000000000004 Q 61.2 27.200000000000003 63.92 27.200000000000003 Q 61.2 27.200000000000003 61.2 29.92 Q 61.2 27.200000000000003 58.480000000000004 27.200000000000003 Q 61.2 27.200000000000003 61.2 24.480000000000004 Z" fill="#14B8A6"/><path d="M 10.88 17.340000000000003 Q 10.88 20.400000000000002 13.940000000000001 20.400000000000002 Q 10.88 20.400000000000002 10.88 23.46 Q 10.88 20.400000000000002 7.82 20.400000000000002 Q 10.88 20.400000000000002 10.88 17.340000000000003 Z" fill="#FBBF24" opacity="0.9"/><path d="M 31.28 54.74 Q 31.28 57.120000000000005 33.660000000000004 57.120000000000005 Q 31.28 57.120000000000005 31.28 59.50000000000001 Q 31.28 57.120000000000005 28.900000000000002 57.120000000000005 Q 31.28 57.120000000000005 31.28 54.74 Z" fill="#14B8A6"/></g><text x="104" y="74" font-family="'Poppins','Segoe UI',system-ui,Arial,sans-serif" font-weight="700" font-size="44" letter-spacing="-0.5" fill="#123B4A">Match<tspan fill="#14B8A6"> Maid</tspan></text></svg>